<mxfile host="app.diagrams.net" modified="2024-05-21T05:26:37.740Z" agent="Mozilla/5.0 (Windows NT 10.0; Win64; x64) AppleWebKit/537.36 (KHTML, like Gecko) Chrome/124.0.0.0 Safari/537.36" etag="GuY5w1vQVhS5GbGXO43b" version="24.4.4" type="device">
  <diagram name="Страница — 1" id="K1xLyPN01-FnIANtIrcz">
    <mxGraphModel dx="1434" dy="818" grid="1" gridSize="10" guides="1" tooltips="1" connect="1" arrows="1" fold="1" page="1" pageScale="1" pageWidth="827" pageHeight="1169" math="0" shadow="0">
      <root>
        <mxCell id="0" />
        <mxCell id="1" parent="0" />
        <mxCell id="eCbYacd1Ri6V7bRimAwy-4" style="edgeStyle=orthogonalEdgeStyle;rounded=0;orthogonalLoop=1;jettySize=auto;html=1;exitX=0.5;exitY=1;exitDx=0;exitDy=0;entryX=0.5;entryY=0;entryDx=0;entryDy=0;" edge="1" parent="1" source="xxFltk1fn75IUjqFp4HD-2" target="xxFltk1fn75IUjqFp4HD-8">
          <mxGeometry relative="1" as="geometry" />
        </mxCell>
        <mxCell id="xxFltk1fn75IUjqFp4HD-2" value="Начало" style="ellipse;whiteSpace=wrap;html=1;aspect=fixed;" parent="1" vertex="1">
          <mxGeometry x="365" y="10" width="80" height="80" as="geometry" />
        </mxCell>
        <mxCell id="xxFltk1fn75IUjqFp4HD-22" style="edgeStyle=orthogonalEdgeStyle;rounded=0;orthogonalLoop=1;jettySize=auto;html=1;exitX=1;exitY=0.5;exitDx=0;exitDy=0;" parent="1" source="xxFltk1fn75IUjqFp4HD-7" target="xxFltk1fn75IUjqFp4HD-16" edge="1">
          <mxGeometry relative="1" as="geometry" />
        </mxCell>
        <mxCell id="eCbYacd1Ri6V7bRimAwy-8" value="No" style="edgeLabel;html=1;align=center;verticalAlign=middle;resizable=0;points=[];" vertex="1" connectable="0" parent="xxFltk1fn75IUjqFp4HD-22">
          <mxGeometry x="0.1385" relative="1" as="geometry">
            <mxPoint as="offset" />
          </mxGeometry>
        </mxCell>
        <mxCell id="xxFltk1fn75IUjqFp4HD-23" style="edgeStyle=orthogonalEdgeStyle;rounded=0;orthogonalLoop=1;jettySize=auto;html=1;entryX=0.5;entryY=0;entryDx=0;entryDy=0;" parent="1" source="xxFltk1fn75IUjqFp4HD-7" target="xxFltk1fn75IUjqFp4HD-14" edge="1">
          <mxGeometry relative="1" as="geometry" />
        </mxCell>
        <mxCell id="eCbYacd1Ri6V7bRimAwy-9" value="Yes" style="edgeLabel;html=1;align=center;verticalAlign=middle;resizable=0;points=[];" vertex="1" connectable="0" parent="xxFltk1fn75IUjqFp4HD-23">
          <mxGeometry x="-0.2" y="1" relative="1" as="geometry">
            <mxPoint as="offset" />
          </mxGeometry>
        </mxCell>
        <mxCell id="xxFltk1fn75IUjqFp4HD-7" value="&lt;span style=&quot;background-color: initial;&quot;&gt;i = 0&lt;/span&gt;&lt;div&gt;i &amp;lt; array1.Length&lt;/div&gt;&lt;div&gt;i++&lt;/div&gt;" style="shape=hexagon;perimeter=hexagonPerimeter2;whiteSpace=wrap;html=1;fixedSize=1;" parent="1" vertex="1">
          <mxGeometry x="320" y="300" width="170" height="80" as="geometry" />
        </mxCell>
        <mxCell id="eCbYacd1Ri6V7bRimAwy-3" style="edgeStyle=orthogonalEdgeStyle;rounded=0;orthogonalLoop=1;jettySize=auto;html=1;exitX=0.5;exitY=1;exitDx=0;exitDy=0;" edge="1" parent="1" source="xxFltk1fn75IUjqFp4HD-8" target="xxFltk1fn75IUjqFp4HD-12">
          <mxGeometry relative="1" as="geometry" />
        </mxCell>
        <mxCell id="xxFltk1fn75IUjqFp4HD-8" value="string[] array1&lt;div&gt;﻿string[] array2&lt;/div&gt;" style="shape=parallelogram;perimeter=parallelogramPerimeter;whiteSpace=wrap;html=1;fixedSize=1;" parent="1" vertex="1">
          <mxGeometry x="315" y="120" width="180" height="60" as="geometry" />
        </mxCell>
        <mxCell id="xxFltk1fn75IUjqFp4HD-12" value="count = 0" style="shape=parallelogram;perimeter=parallelogramPerimeter;whiteSpace=wrap;html=1;fixedSize=1;" parent="1" vertex="1">
          <mxGeometry x="310" y="200" width="180" height="60" as="geometry" />
        </mxCell>
        <mxCell id="eCbYacd1Ri6V7bRimAwy-1" style="edgeStyle=orthogonalEdgeStyle;rounded=0;orthogonalLoop=1;jettySize=auto;html=1;exitX=1;exitY=0.5;exitDx=0;exitDy=0;entryX=0.5;entryY=0;entryDx=0;entryDy=0;" edge="1" parent="1">
          <mxGeometry relative="1" as="geometry">
            <mxPoint x="501.5" y="460" as="sourcePoint" />
            <mxPoint x="524" y="555" as="targetPoint" />
          </mxGeometry>
        </mxCell>
        <mxCell id="eCbYacd1Ri6V7bRimAwy-12" value="Yes" style="edgeLabel;html=1;align=center;verticalAlign=middle;resizable=0;points=[];" vertex="1" connectable="0" parent="eCbYacd1Ri6V7bRimAwy-1">
          <mxGeometry x="0.0978" y="2" relative="1" as="geometry">
            <mxPoint as="offset" />
          </mxGeometry>
        </mxCell>
        <mxCell id="eCbYacd1Ri6V7bRimAwy-2" style="edgeStyle=orthogonalEdgeStyle;rounded=0;orthogonalLoop=1;jettySize=auto;html=1;exitX=0;exitY=0.5;exitDx=0;exitDy=0;entryX=0;entryY=0.5;entryDx=0;entryDy=0;" edge="1" parent="1" source="xxFltk1fn75IUjqFp4HD-14" target="xxFltk1fn75IUjqFp4HD-7">
          <mxGeometry relative="1" as="geometry" />
        </mxCell>
        <mxCell id="eCbYacd1Ri6V7bRimAwy-13" value="No" style="edgeLabel;html=1;align=center;verticalAlign=middle;resizable=0;points=[];" vertex="1" connectable="0" parent="eCbYacd1Ri6V7bRimAwy-2">
          <mxGeometry x="-0.0609" y="2" relative="1" as="geometry">
            <mxPoint x="1" as="offset" />
          </mxGeometry>
        </mxCell>
        <mxCell id="xxFltk1fn75IUjqFp4HD-14" value="array1[i].Length &amp;lt;= 3" style="rhombus;whiteSpace=wrap;html=1;" parent="1" vertex="1">
          <mxGeometry x="307.5" y="420" width="195" height="80" as="geometry" />
        </mxCell>
        <mxCell id="xxFltk1fn75IUjqFp4HD-17" style="edgeStyle=orthogonalEdgeStyle;rounded=0;orthogonalLoop=1;jettySize=auto;html=1;entryX=0;entryY=0.5;entryDx=0;entryDy=0;exitX=0.5;exitY=1;exitDx=0;exitDy=0;" parent="1" source="xxFltk1fn75IUjqFp4HD-15" target="xxFltk1fn75IUjqFp4HD-7" edge="1">
          <mxGeometry relative="1" as="geometry">
            <Array as="points">
              <mxPoint x="530" y="615" />
              <mxPoint x="530" y="650" />
              <mxPoint x="210" y="650" />
              <mxPoint x="210" y="340" />
            </Array>
          </mxGeometry>
        </mxCell>
        <mxCell id="xxFltk1fn75IUjqFp4HD-15" value="&lt;div&gt;array2[count] = array1[i]&lt;/div&gt;&lt;div&gt;&amp;nbsp; &amp;nbsp; &amp;nbsp; &amp;nbsp; count++&lt;/div&gt;" style="rounded=0;whiteSpace=wrap;html=1;" parent="1" vertex="1">
          <mxGeometry x="430" y="555" width="190" height="60" as="geometry" />
        </mxCell>
        <mxCell id="xxFltk1fn75IUjqFp4HD-16" value="&lt;div style=&quot;color: rgb(204, 204, 204); background-color: rgb(31, 31, 31); font-family: Consolas, &amp;quot;Courier New&amp;quot;, monospace; font-size: 14px; line-height: 19px; white-space: pre;&quot;&gt;&lt;span style=&quot;color: #dcdcaa;&quot;&gt;PrintArray&lt;/span&gt;&lt;/div&gt;" style="shape=document;whiteSpace=wrap;html=1;boundedLbl=1;" parent="1" vertex="1">
          <mxGeometry x="620" y="300" width="120" height="80" as="geometry" />
        </mxCell>
      </root>
    </mxGraphModel>
  </diagram>
</mxfile>
